<svg id="Ñëîé_1" data-name="Ñëîé 1" xmlns="http://www.w3.org/2000/svg" viewBox="0 0 2260 1787.56"><defs><style>.cls-1{fill:#d4e8ff;}.cls-2{fill:#dce6ff;}.cls-3{fill:#eef7ff;}.cls-4{fill:#cfddf9;}.cls-5{fill:#b6cdf2;}.cls-6{fill:#163356;}.cls-7{fill:#b8d2ff;}.cls-8{fill:#97aeef;}.cls-9{fill:#fff;}.cls-10{fill:#8097e0;}.cls-11{fill:#eb5648;}.cls-12{fill:#3a72aa;}.cls-13{fill:#527fbf;}.cls-14{fill:#3b679b;}.cls-15{fill:#7689d6;}.cls-16{fill:#3a5c99;}.cls-17{fill:#6a84c6;}.cls-18{fill:#ce4abf;}.cls-19{fill:#f99370;}.cls-20{fill:#23659b;}.cls-21{fill:#1d3f70;}.cls-22{fill:#ce3932;}.cls-23{fill:#e57d61;}.cls-24{fill:#f9f8f3;}.cls-25{fill:#a523a2;}.cls-26{fill:#c16256;}.cls-27{fill:#f4d4be;}.cls-28{fill:#395b96;}.cls-29{fill:#e8c0a6;}.cls-30{fill:#103663;}.cls-31{fill:#662948;}</style></defs><g id="_5" data-name="5"><path class="cls-1" d="M568.85,1663.57S277.52,805,469,646c128-106.25,233,116,330,11,123.17-133.33,94-354,295-375,262.67-27.44,469.43,594.28,681.55,508.71C2033,686.89,2289,897.65,2067.73,1664.93Z" transform="translate(-170 -106.22)"/><path class="cls-2" d="M360.67,1602.36c-4.47-14.19-8.89-28.89-13.14-43.7l10.47-3.23c4.22,14.72,8.61,29.32,13.05,43.42ZM2234,1584l-10.84-1.39c1.8-15.1,3.51-30.32,5.08-45.22l10.86,1.24C2237.52,1553.62,2235.81,1568.88,2234,1584Zm-1898.53-69.4c-3.82-14.63-7.53-29.54-11-44.31l10.61-2.69c3.47,14.68,7.15,29.49,11,44Zm1908.1-21.42-10.87-1.07c1.38-15.16,2.66-30.42,3.8-45.34l10.89.89C2246.25,1462.68,2245,1478,2243.57,1493.22Zm-1929.1-67.45c-3.16-14.91-6.16-30-8.93-44.81l10.73-2.15c2.75,14.73,5.73,29.71,8.87,44.53Zm1936.06-23.64-10.9-.72c.92-15.15,1.73-30.44,2.41-45.43l10.91.52C2252.27,1371.56,2251.46,1386.91,2250.53,1402.13ZM297.71,1335.92c-2.43-15.09-4.68-30.31-6.68-45.23l10.82-1.57c2,14.83,4.23,30,6.64,44.94Zm1956.91-25.08-10.92-.33c.42-15.23.72-30.53.87-45.49l10.92.12C2255.34,1280.17,2255.05,1295.54,2254.62,1310.84ZM285.55,1245.27c-1.63-15.25-3.05-30.58-4.22-45.57l10.89-.91c1.16,14.88,2.57,30.1,4.18,45.23Zm1959.06-25.74c-.12-15.24-.4-30.54-.83-45.48l10.93-.33c.42,15,.7,30.4.83,45.71ZM278.47,1154c-.73-15.33-1.21-30.73-1.43-45.76l10.92-.17c.22,14.9.7,30.17,1.42,45.38ZM2242,1128.62c-.75-15.21-1.67-30.48-2.74-45.37l10.89-.84c1.08,15,2,30.33,2.76,45.63Zm-1954-65.94-10.93-.23c.31-15.38.89-30.78,1.75-45.78l10.9.67C289,1032.19,288.37,1047.45,288.07,1062.68ZM2235.5,1038c-1.46-15.21-3.11-30.4-4.91-45.15l10.84-1.42c1.81,14.85,3.47,30.14,4.94,45.45ZM293.26,972.12,282.39,971c1.48-15.32,3.29-30.62,5.38-45.5l10.81,1.63C296.51,941.83,294.73,957,293.26,972.12Zm1931.21-24.3c-2.27-15.11-4.77-30.17-7.42-44.76l10.74-2.09c2.67,14.7,5.19,29.87,7.48,45.11Zm-1292-1.6c-15.18-2.48-26.16-9.64-41.37-22l6.9-8.77c13.33,10.81,22.95,17.29,35.63,19.53Zm37.9-27-9.73-5.15c5-10.15,9.42-24.24,13.14-41.88l10.67,2.42C980.43,893.51,975.82,908.1,970.32,919.27ZM859,891.72c-8.7-10.05-18-21.61-28.43-35.36l8.59-7c10.28,13.55,19.43,24.93,28,34.79Zm-553.11-9.29-10.72-2.16c2.83-15.12,6-30.19,9.52-44.8l10.6,2.71C311.83,852.61,308.67,867.5,305.87,882.43ZM2208.22,858.6c-3.23-15-6.72-29.79-10.37-44.08l10.56-2.9c3.69,14.43,7.21,29.4,10.47,44.5ZM991.76,829.08l-10.84-1.45c1.68-13.52,3.18-28.32,4.6-45.26l10.88,1C995,800.44,993.45,815.4,991.76,829.08Zm-188-9.21c-8.88-12.43-18.09-25.58-26-36.92l8.84-6.65c7.92,11.32,17.11,24.44,26,36.83Zm799.83-.93c-8.5,0-16.85-2.64-24.81-7.83l5.83-9.59c11.95,7.83,23.7,7.84,36.4,1.6l4.7,10.23A50,50,0,0,1,1603.62,818.94ZM326.89,794.54l-10.44-3.32c4.34-14.71,9.1-29.35,14.15-43.5l10.25,3.93C335.87,765.6,331.17,780,326.89,794.54Zm1334.57-10.8-8-7.69A377.84,377.84,0,0,0,1680.58,741l8.85,6.64A391.35,391.35,0,0,1,1661.46,783.74ZM1547.75,776a354.45,354.45,0,0,1-21.42-40.71l9.87-4.85a342.76,342.76,0,0,0,20.72,39.4Zm638-5c-4.4-14.67-9.1-29.12-14-42.94l10.27-3.88c4.92,14,9.67,28.61,14.12,43.46ZM751.88,746c-10-14.16-18.33-25.79-26.22-36.59l8.71-6.84c7.93,10.86,16.29,22.53,26.32,36.75Zm247.81-8.41-10.9-.74c.82-13.27,1.67-28.18,2.57-45.6l10.91.61C1001.36,709.34,1000.52,724.29,999.69,737.61ZM357.22,709.72l-10-4.57q9-21.12,19.18-41.43l9.68,5.23Q366.07,688.92,357.22,709.72Zm1357.24,0-9.13-6.22c7.76-12.24,15.78-25.21,23.9-38.3l9.19,6.12C1730.28,684.45,1722.26,697.43,1714.46,709.72ZM1508.74,693c-4.94-12.87-10.06-26.91-15.63-42.92l10.28-3.85c5.53,15.9,10.6,29.82,15.5,42.57Zm647-7.07c-5.87-14.18-12.08-28-18.46-40.95l9.73-5.14c6.49,13.21,12.8,27.21,18.77,41.63ZM698.69,673.54c-9.92-12.76-19.14-24.11-28.21-34.71l8.17-7.52c9.18,10.74,18.52,22.23,28.54,35.13Zm305.85-27.35-10.91-.57c.74-15.13,1.47-30.27,2.25-45.67l10.91.59C1006,615.94,1005.28,631.07,1004.54,646.19Zm757.83-13.13-9.11-6.24c9.13-14.32,17.29-26.71,25-37.87l8.9,6.57C1779.52,606.57,1771.43,618.85,1762.37,633.06ZM397.76,629.87l-9.21-6.1a351.54,351.54,0,0,1,26.31-37.42l8.35,7.31A338.65,338.65,0,0,0,397.76,629.87Zm1080.76-23c-5-15.22-9.92-30.45-14.07-43.34l10.36-3.58c4.15,12.87,9,28.07,14,43.26ZM640.44,606a381.86,381.86,0,0,0-32.63-29.59l6.66-9a393.08,393.08,0,0,1,33.59,30.45Zm1475.64-.48c-7.83-13.25-16-25.77-24.4-37.23l8.71-6.84c8.58,11.76,17,24.59,25,38.15ZM453.85,562.84l-6.63-9c13-10.32,26.63-17.76,40.36-22.12l3.2,10.83C478.29,546.52,465.86,553.34,453.85,562.84Zm1359.62-3.46-8.49-7.13a435.13,435.13,0,0,1,29.68-34.48l7.73,8A426.56,426.56,0,0,0,1813.47,559.38Zm-804.23-4.45-10.91-.68c.95-16.46,1.89-31.41,2.87-45.71l10.9.81C1011.12,523.6,1010.18,538.51,1009.24,554.93Zm-437.55-2.38c-13.63-7-27-11.52-39.85-13.34L533.32,528c14,2,28.54,6.84,43.24,14.42Zm1491.89-18.3a259.44,259.44,0,0,0-32.37-29.31l6.43-9.16a271.81,271.81,0,0,1,33.75,30.55Zm-613.06-14.11c-5.44-16.86-9.92-30.6-14.1-43.25l10.33-3.67c4.2,12.68,8.68,26.45,14.13,43.32Zm424.56-23.28-6.26-9.28c13.44-9.74,27-17,40.34-21.45l3.37,10.77C1900.23,481,1887.63,487.76,1875.08,496.86ZM1994.29,483a134.16,134.16,0,0,0-40.71-10.89l1-11.28a144.69,144.69,0,0,1,43.94,11.73Zm-978.7-19.11-10.88-1c1.36-15.9,2.85-31.24,4.4-45.62l10.86,1.26C1018.42,432.81,1017,448.07,1015.59,463.88Zm406.3-30.07c-5.28-15.28-10.26-29.24-15.21-42.69l10.2-4c5,13.52,10,27.56,15.29,42.91Zm-396.36-60.45-10.81-1.62c2.21-15.86,4.64-31.11,7.22-45.33l10.74,2.09C1030.12,342.57,1027.72,357.66,1025.53,373.36Zm364.92-24.53c-5.87-14.64-11.79-28.65-17.59-41.63l9.91-4.76c5.86,13.12,11.84,27.26,17.77,42ZM1042,284.18l-10.6-2.74c3.81-15.82,8-30.72,12.49-44.29l10.34,3.67C1049.8,254.08,1045.69,268.67,1042,284.18Zm311.51-17.63c-7.19-14-14.53-27.2-21.82-39.15l9.23-6.06c7.44,12.19,14.92,25.61,22.24,39.9Zm-282.88-67.23-9.79-5a226.86,226.86,0,0,1,23.64-39.61l8.58,7A216,216,0,0,0,1070.58,199.32Zm236-8.66A273.86,273.86,0,0,0,1277.32,158l7.33-8.4a284.07,284.07,0,0,1,30.49,34Zm-183.11-58.3-5.89-9.54a106.46,106.46,0,0,1,42.38-16.6l1.67,11.19A95.93,95.93,0,0,0,1123.49,132.36Zm119.36,0a128.62,128.62,0,0,0-39.4-14.45l1.91-11.16A139.23,139.23,0,0,1,1248,122.38Z" transform="translate(-170 -106.22)"/><path class="cls-3" d="M2303.24,1415.16c-90.66-14.82-75.87,119-205.09,119-118.15,0-156-509.79-241.92-364.06-440.71,747.08-184.8-317.71-535.29-331.24-158.48-6.12-264.08,180.21-303,510.13-56.45,298.25-187.37-227.49-322.1-178.6-85.62,31.06-75.82,363.77-194,363.77-129.22,0-114.43-133.87-205.09-119-97.61,15.95-125.08,252.89-125.08,252.89h2256.1S2400.85,1431.11,2303.24,1415.16Z" transform="translate(-170 -106.22)"/><path class="cls-2" d="M2223,1560.07c-83.4-6.33-69.79,50.83-188.67,50.83-108.7,0-105.71-128.11-178.45-155.34-133.95-50.14-244.39,203.63-296.32,76.27-98.63-337.94-386.31-507.41-519,0-51.93,127.36-173.38-99.89-296.32-76.27-75.67,14.55-69.75,155.34-178.45,155.34-118.88,0-105.27-57.16-188.67-50.83-89.8,6.81-116.62,108-116.62,108H2339.57S2312.75,1566.88,2223,1560.07Z" transform="translate(-170 -106.22)"/><path class="cls-4" d="M171.68,1668.05s-15.86,52.38,49.83,65.5c89.85,17.94,617.24,65.07,489.12,100.88-72.33,20.21,36.92,47.67,389.2,57.78s956.75-29.5,753.47-88.11,624.93-14.15,574.48-136Z" transform="translate(-170 -106.22)"/><ellipse class="cls-5" cx="1108.48" cy="1670.86" rx="389.43" ry="28.34"/></g><g id="_4" data-name="4"><path class="cls-6" d="M1250.43,391.69c-23.91-.4-46.85,12.08-61.91,30.3-14.35-19.47-38.86-31.79-63.09-30,25.35,7.66,45.66,24.71,59.29,46.81,4,2.64,8.42,0,10.28-3.93,14.5-20.91,36.27-35.52,60.65-42.88C1253.91,391.87,1252.17,391.73,1250.43,391.69Z" transform="translate(-170 -106.22)"/><path class="cls-6" d="M1608.17,367.28c-24.78-1.5-48.94,11.32-64.52,30.17-14.35-19.47-38.87-31.79-63.09-30,25.34,7.66,45.65,24.71,59.29,46.81,4,2.64,8.41,0,10.27-3.93,14.5-20.91,36.27-35.52,60.65-42.88C1609.91,367.4,1609,367.33,1608.17,367.28Z" transform="translate(-170 -106.22)"/><path class="cls-6" d="M1123.9,282c-24.78-1.5-48.94,11.31-64.52,30.17-14.35-19.47-38.86-31.8-63.09-30,25.34,7.65,45.65,24.71,59.29,46.81,4,2.64,8.42,0,10.27-3.93,14.5-20.91,36.28-35.52,60.65-42.88C1125.64,282.06,1124.77,282,1123.9,282Z" transform="translate(-170 -106.22)"/><path class="cls-6" d="M732.26,642.44c-23.9-.4-46.85,12.07-61.9,30.3-14.35-19.47-38.86-31.8-63.09-30,25.34,7.65,45.65,24.71,59.29,46.8,4,2.65,8.42,0,10.28-3.92,14.5-20.92,36.27-35.53,60.65-42.88C735.75,642.61,734,642.47,732.26,642.44Z" transform="translate(-170 -106.22)"/><path class="cls-6" d="M890.26,449.44c-23.9-.4-46.85,12.07-61.9,30.3-14.35-19.47-38.86-31.8-63.09-30,25.34,7.65,45.65,24.71,59.29,46.8,4,2.65,8.42,0,10.28-3.92,14.5-20.92,36.27-35.53,60.65-42.88C893.75,449.61,892,449.47,890.26,449.44Z" transform="translate(-170 -106.22)"/></g><g id="_3" data-name="3"><g id="_8" data-name="8"><path class="cls-7" d="M1884,1073.5c.3,469.57-517.49,758.75-916.76,514.64-342.65-207-389.73-696.66-87.39-964.37a599.62,599.62,0,0,1,118-82.42C1397.52,328.65,1883.73,618.55,1884,1073.5Z" transform="translate(-170 -106.22)"/><path class="cls-8" d="M1888.21,1075.21c-.48,167.94-75.38,324.26-189,431.91-39.45,37.4-196.25,36.88-148-98.64,24.25-68.18-2.62-82.69-88-121.29s-85.51-90.58,78.43-87.48,202.72-219,96.53-196-185.77-7.78-214.45-56.3c-10.58-17.9-34-25.38-58.44-30.29-41.76-8.4-86.38-9.32-74.29-42.06,20.24-52.58,118.71-45.18,168.23-82.54,61.33-46.26-29-70-20.37-145.14,4.64-33.49,28.69-73.18,58.4-136C1734.57,602,1892.38,816.57,1888.21,1075.21Z" transform="translate(-170 -106.22)"/><path class="cls-8" d="M1281.2,1069.22c-11.76,27.8-52.55,49-61.33,74.61-6.69,14.1,5.94,34.3,21.06,45.07,71.54,64.93-94.19,102.5-167.66,114.08-120.94,18.26-68.45,86.7-25.18,75.29s48,47.9,22.88,102.65c-11.29,24.66-4.77,61.62,5.81,94.81,5.36,20.77,31.74,76,31.74,76-62.7-15.64-191.78-76.19-258.59-157.06-54.95-66.51,48.81-155.4,11.52-260.09-15.57-57-107.61,31.93-112.82,0s73.66-98.09,18.91-106.34S796.58,1019,852,980.84,909,995,956.47,990.4c41.21-.77,80.61-61.63,116.79-63.45,28.69,3.31,29.64,88.56,94.43,73.46C1220.66,984.9,1302,1023.85,1281.2,1069.22Z" transform="translate(-170 -106.22)"/><path class="cls-8" d="M1289,598c-53.72-1.63,2.52-59-62-59-41,0-89.87,45.31-128.65,44.77-38.58-.53-27-28-19.38-38.19,28.17-37.79,88.44-59.45,162.33-74.1C978,484.3,746.25,678,692.43,944.59c3.73-18.49,61.9-67.7,72.82-11.79,8,52.28,35.21,47.8,77.59,31.35,33.78-13.11,15.67-34.6-34-41.3s-23.2-74.88,33.9-75.51,177.2-28.65,113.72-50-45.06-40.33,53-51.38c87.51-10,3.32-55.93,5.57-99.93,2.2-43,30-9.6,85.63-15.12,59.32-5.88,109.51-85.34,127.76-27.29S1346,651,1346,628C1346,607,1322,599,1289,598Z" transform="translate(-170 -106.22)"/></g><path class="cls-9" d="M1116.49,786.6a66.22,66.22,0,0,0,17.21-17.94c-5.08-.48-7.87-3.92-10.3-8.22,18.39-27.65,49-39.62,68.39-26.73s20.19,45.76,1.8,73.41c0,0-6.94-.63-11.16-5.85a60.47,60.47,0,0,1-14.18,17.34c-15.73,13-11.6,38.6-11.56,38.86a2.42,2.42,0,0,1-2,2.8,2.12,2.12,0,0,1-.87,0,2.4,2.4,0,0,1-1.93-2c-.2-1.17-4.67-28.66,13.26-43.44a56.87,56.87,0,0,0,14.32-18.5,14.74,14.74,0,0,0-6.15-5.36,75.08,75.08,0,0,1-19.55,23.46c-19.16,15.5-15.68,35.76-15.52,36.61a2.44,2.44,0,0,1-1.94,2.84,2.37,2.37,0,0,1-.92,0,2.42,2.42,0,0,1-1.92-1.93c-.19-1-4.24-23.92,17.25-41.3a70.56,70.56,0,0,0,17.73-21,10.46,10.46,0,0,0-1.24-.08,17.9,17.9,0,0,1-9.37-2.62,53.73,53.73,0,0,1-13.16,19.43c-15.81,14.65-20.41,26.26-21.76,31.88a2.43,2.43,0,0,1-2.83,1.82l-.1,0a2.44,2.44,0,0,1-1.8-2.93c1.47-6.15,6.44-18.79,23.18-34.32a49.07,49.07,0,0,0,12.58-19.3,21.28,21.28,0,0,1-2.87-4.67,16.22,16.22,0,0,0-1.51-2.61c-6.55,4.7-14,11.92-18.11,22.12-11.2,28-27,35.32-27.71,35.62a2.43,2.43,0,0,1-2-4.44c.14-.06,14.79-7,25.18-33,4.44-11.07,12.28-18.84,19.27-23.95a17.48,17.48,0,0,0-7-3.6,70.47,70.47,0,0,1-19.93,21.55c-21.32,15.22-21,30.47-21,30.61a2.41,2.41,0,0,1-2.31,2.54,2.24,2.24,0,0,1-.58,0,2.42,2.42,0,0,1-2-2.27C1093.4,820.68,1092.83,803.48,1116.49,786.6Z" transform="translate(-170 -106.22)"/><path class="cls-10" d="M1273.53,750.87a66.22,66.22,0,0,0,17.21-17.94c-5.08-.48-7.87-3.92-10.3-8.22,18.39-27.65,49-39.62,68.39-26.73s20.19,45.76,1.8,73.41c0,0-6.93-.62-11.16-5.85a60.47,60.47,0,0,1-14.18,17.34c-15.73,13-11.6,38.6-11.56,38.86a2.43,2.43,0,0,1-2,2.81,2.59,2.59,0,0,1-.88,0,2.44,2.44,0,0,1-1.93-2c-.2-1.16-4.67-28.66,13.26-43.43a56.87,56.87,0,0,0,14.32-18.51,14.69,14.69,0,0,0-6.15-5.36,75.16,75.16,0,0,1-19.54,23.46c-19.16,15.5-15.69,35.76-15.53,36.61a2.43,2.43,0,0,1-1.94,2.84,2.37,2.37,0,0,1-.92,0,2.42,2.42,0,0,1-1.92-1.93c-.18-1-4.24-23.92,17.25-41.3a70.56,70.56,0,0,0,17.73-21c-.41,0-.83-.07-1.24-.08a17.84,17.84,0,0,1-9.36-2.62,53.65,53.65,0,0,1-13.17,19.43c-15.8,14.66-20.41,26.27-21.75,31.88a2.44,2.44,0,0,1-2.83,1.82l-.1,0a2.42,2.42,0,0,1-1.8-2.93c1.46-6.15,6.43-18.79,23.17-34.31A49.23,49.23,0,0,0,1311,747.8a20.71,20.71,0,0,1-2.88-4.67,16.22,16.22,0,0,0-1.51-2.61c-6.55,4.7-14,11.92-18.11,22.12-11.2,28-27,35.32-27.71,35.62a2.43,2.43,0,0,1-2-4.43c.15-.07,14.79-7,25.19-33,4.43-11.07,12.27-18.84,19.26-24a17.26,17.26,0,0,0-7-3.59,70.44,70.44,0,0,1-19.93,21.54c-21.32,15.22-21,30.47-21,30.61A2.43,2.43,0,0,1,1253,788a2.28,2.28,0,0,1-.59,0,2.42,2.42,0,0,1-2-2.26C1250.44,785,1249.88,767.75,1273.53,750.87Z" transform="translate(-170 -106.22)"/><path class="cls-10" d="M1445.88,1360.5l-17.48,8.6h0c-5.18-3.31-12.42-6.67-20.43-6.67-15.76,0-28.53,13-28.53,13s12.77,13,28.53,13c8,0,15.25-3.36,20.43-6.66h0l17.48,8.6-9.38-14.94Z" transform="translate(-170 -106.22)"/><path class="cls-10" d="M1477.39,1463.3l-24.79,12.2h0c-7.35-4.69-17.61-9.45-29-9.45-22.35,0-40.47,18.44-40.47,18.44s18.12,18.43,40.47,18.43c11.37,0,21.63-4.76,29-9.45h0l24.79,12.21-13.3-21.19Z" transform="translate(-170 -106.22)"/><path class="cls-10" d="M1382.88,1536.35l-17.48,8.6h0c-5.18-3.3-12.42-6.66-20.43-6.66-15.76,0-28.53,13-28.53,13s12.77,13,28.53,13c8,0,15.25-3.36,20.43-6.67h0l17.48,8.61-9.38-14.94Z" transform="translate(-170 -106.22)"/><path class="cls-11" d="M1213.31,1419.21s27.66-19.6,61.77-19.6h.29a31.92,31.92,0,0,1,20.89-10.21l-5.77,11.49a119.29,119.29,0,0,1,28.82,8.76h0l37.83-13-20.29,22.52,20.29,22.51-37.83-13h0c-11.22,5-26.89,10-44.23,10C1241,1438.8,1213.31,1419.21,1213.31,1419.21Z" transform="translate(-170 -106.22)"/><path class="cls-12" d="M1147.13,1503s27.65-19.59,61.76-19.59h.29a32,32,0,0,1,20.89-10.21l-5.76,11.5a118.92,118.92,0,0,1,28.81,8.75h0l37.83-13L1270.65,1503l20.29,22.52-37.83-13h0c-11.22,5-26.88,10-44.23,10C1174.78,1522.58,1147.13,1503,1147.13,1503Z" transform="translate(-170 -106.22)"/><path class="cls-13" d="M1801.73,765.1c-12.51-20.68-8.2-41-12.08-52.66s-10.73-27.5-23.41-27.62h-.15c-12.67.12-19.54,16-23.41,27.62s.43,32-12.08,52.66-5.14,51.75,35.49,52.2h.15C1806.88,816.85,1814.22,785.76,1801.73,765.1Z" transform="translate(-170 -106.22)"/><path class="cls-14" d="M1779.73,739.22a1.84,1.84,0,0,0-2.59,0l-10,10V725.38a1.84,1.84,0,1,0-3.67,0v59.55l-7.63-7.63a1.83,1.83,0,0,0-2.6,2.59l10.23,10.23v71.49a1.84,1.84,0,0,0,3.67,0V754.46l12.63-12.64A1.83,1.83,0,0,0,1779.73,739.22Z" transform="translate(-170 -106.22)"/><path class="cls-15" d="M1742.5,786.12c2.6-10.23-7.78-13.55-11.76-16.22-6.08-4.1-5.79-7.88-6.08-13.9-1-20.5-25.88-20.58-25.42,0,.42,18.79-20.75,12.69-17.84,30.12,3,11.63-6.71,16-5.58,25s17.23,14.91,36.1,14.92h.06c18.86,0,35-5.91,36.1-14.92S1739.53,797.75,1742.5,786.12Z" transform="translate(-170 -106.22)"/><path class="cls-14" d="M1731.24,796.26a1.84,1.84,0,0,0-2.59,0l-14.87,14.87v-49.6a1.84,1.84,0,1,0-3.67,0v31.65l-12.53-13.57a1.84,1.84,0,1,0-2.7,2.49l15.23,16.49v58.9a1.84,1.84,0,0,0,3.67,0V816.32l17.46-17.46A1.83,1.83,0,0,0,1731.24,796.26Z" transform="translate(-170 -106.22)"/><path class="cls-13" d="M1537.32,590.88c-4.06-15.94,12.12-21.13,18.33-25.3,9.49-6.38,9.49-12.26,9.49-21.66,3.11-31.85,36.48-31.94,39.62,0-4.17,29,32.36,19.79,27.82,47-4.62,18.13,10.47,24.91,8.71,39s-26.88,23.24-56.3,23.26h-.08c-29.42,0-54.54-9.22-56.3-23.26S1541.94,609,1537.32,590.88Z" transform="translate(-170 -106.22)"/><path class="cls-14" d="M1610.7,581.32a1.83,1.83,0,0,0-2.59.1l-21.32,23.09v-52a1.84,1.84,0,1,0-3.67,0v79.82l-24.93-24.94a1.84,1.84,0,1,0-2.6,2.6l27.53,27.53v64.61a1.84,1.84,0,0,0,3.67,0V609.92l24-26A1.83,1.83,0,0,0,1610.7,581.32Z" transform="translate(-170 -106.22)"/><path class="cls-15" d="M1611.42,631c10.56-14.87,6.92-29.49,10.19-37.85s9.06-19.78,19.76-19.86h.13c10.7.08,16.49,11.52,19.76,19.86s-.37,23,10.19,37.85,4.35,37.2-30,37.53h-.13C1607.07,668.16,1600.87,645.81,1611.42,631Z" transform="translate(-170 -106.22)"/><path class="cls-14" d="M1652.68,639.47a1.85,1.85,0,0,0-2.59-.21l-6.06,5.17v-42a1.84,1.84,0,0,0-3.67,0v16.39l-8.09-6.9a1.84,1.84,0,1,0-2.38,2.8l10.47,8.92v76.73a1.84,1.84,0,0,0,3.67,0V649.25l8.44-7.19A1.84,1.84,0,0,0,1652.68,639.47Z" transform="translate(-170 -106.22)"/><path class="cls-13" d="M1476.32,837.88c-4.06-15.94,12.12-21.13,18.33-25.3,9.49-6.38,9.49-12.26,9.49-21.66,3.11-31.85,36.48-31.94,39.62,0-4.17,29,32.36,19.79,27.82,47-4.62,18.13,10.47,24.91,8.71,39s-26.88,23.24-56.3,23.26h-.08c-29.42,0-54.54-9.22-56.3-23.26S1480.94,856,1476.32,837.88Z" transform="translate(-170 -106.22)"/><path class="cls-14" d="M1549.7,828.32a1.83,1.83,0,0,0-2.59.1l-21.32,23.09v-52a1.84,1.84,0,1,0-3.67,0v79.82l-24.93-24.94a1.84,1.84,0,1,0-2.6,2.6l27.53,27.53v64.61a1.84,1.84,0,0,0,3.67,0V856.92l24-26A1.83,1.83,0,0,0,1549.7,828.32Z" transform="translate(-170 -106.22)"/><path class="cls-15" d="M1550.42,878c10.56-14.87,6.92-29.49,10.19-37.85s9.06-19.78,19.76-19.86h.13c10.7.08,16.49,11.52,19.76,19.86s-.37,23,10.19,37.85,4.35,37.2-30,37.53h-.13C1546.07,915.16,1539.87,892.81,1550.42,878Z" transform="translate(-170 -106.22)"/><path class="cls-14" d="M1591.68,886.47a1.85,1.85,0,0,0-2.59-.21l-6.06,5.17v-42a1.84,1.84,0,0,0-3.67,0v16.39l-8.09-6.9a1.84,1.84,0,1,0-2.38,2.8l10.47,8.92v76.73a1.84,1.84,0,0,0,3.67,0V896.25l8.44-7.19A1.84,1.84,0,0,0,1591.68,886.47Z" transform="translate(-170 -106.22)"/><path class="cls-16" d="M1191.15,1027.87c-13.48-27.29-30.36-33.56-40.88-34.51,14-4,17.55-20.37,17.55-20.37-20,4.11-25.56,12.23-27,17.09,1.83-22.55-15.12-30.08-15.12-30.08a37.1,37.1,0,0,0,4.17,21.92c-9.85-8.34-27.13-16.9-53.74-10.79,0,0,8.64,28.37,54,24.27-14.82,3-41.43,12.58-49.13,42.74,0,0,30.14-3.59,48.62-25.28-23.85,46.79-34.28,99.81-35.47,152.08l18.15-1.07c-3.94-50.9,1.16-103.53,20-151.25-4.61,14.77-6.52,36,9.4,55.21,0,0,13.59-24.31,8.86-50.7C1165.87,1034.19,1191.15,1027.87,1191.15,1027.87Z" transform="translate(-170 -106.22)"/><path class="cls-16" d="M994.12,1283.13c-10.9-22.06-24.54-27.13-33-27.9,11.28-3.25,14.18-16.47,14.18-16.47-16.18,3.32-20.66,9.89-21.86,13.82,1.49-18.24-12.22-24.32-12.22-24.32a30.08,30.08,0,0,0,3.37,17.72c-8-6.74-21.93-13.67-43.45-8.72,0,0,7,22.94,43.68,19.62-12,2.43-33.49,10.17-39.72,34.55,0,0,24.37-2.9,39.31-20.43-19.28,37.83-27.72,80.69-28.68,123l14.68-.86c-3.19-41.15.94-83.7,16.17-122.29-3.73,11.94-5.27,29.12,7.6,44.64,0,0,11-19.65,7.17-41C973.68,1288.24,994.12,1283.13,994.12,1283.13Z" transform="translate(-170 -106.22)"/><path class="cls-16" d="M1030.23,1067.65c-5.77-22.62-25.73-29.8-36.84-32.06,34,3.08,40.52-18.19,40.52-18.19-20-4.59-32.92,1.83-40.3,8.08a27.79,27.79,0,0,0,3.12-16.43s-12.71,5.64-11.33,22.56c-1.12-3.65-5.27-9.74-20.28-12.82,0,0,2.69,12.26,13.16,15.28-7.89.71-20.55,5.41-30.66,25.88,0,0,19,4.73,30.45-8.06-3.55,19.79,6.64,38,6.64,38,11.94-14.39,10.51-30.32,7-41.4,14.13,35.8,18,75.25,15,113.43l13.61.8c-.89-39.2-8.71-79-26.6-114C1007.63,1065,1030.23,1067.65,1030.23,1067.65Z" transform="translate(-170 -106.22)"/><g id="_6" data-name="6"><polygon class="cls-16" points="844.31 584.83 693.68 584.83 745.65 468.18 745.65 468.18 768.99 415.78 791.31 465.89 844.31 584.83"/><path class="cls-9" d="M961.31,572.11c-5.86.53-9-10.57-10.87-16s-5.75-4.18-5.62,5.12-3,10.75-6.67,8.25-.52-15.67-4.57-16.72-7.84,10.58-10.85,16.84-7.08,4.84-7.08,4.84h0L939,522Z" transform="translate(-170 -106.22)"/></g><g id="_5-2" data-name="5"><polygon class="cls-17" points="698.04 510.78 651.62 591.19 744.47 591.19 698.04 510.78"/><path class="cls-9" d="M891,656.76c-3,4.18-9-3.14-13.85-12.18-3-5.58-4.69-2.28-4.58,5.59s-3.7,8.94-5.41,7-1.68-14.59-4.65-14.69c-3.76-.14-6.58,9.08-9.55,14.11-5.61,9.49-9.15,2.41-9.15,2.41L868,617Z" transform="translate(-170 -106.22)"/></g><g id="_4-2" data-name="4"><polygon class="cls-17" points="759.51 527.75 702.31 626.82 816.72 626.82 759.51 527.75"/><path class="cls-9" d="M901.06,683.25c3.74,5.14,11.33-4.16,17.34-15.3,3.71-6.87,5.78-2.81,5.65,6.89s4.56,11,6.66,8.59,2.08-18,5.74-18.1c4.63-.16,8.1,11.19,11.76,17.39,6.91,11.7,11.22,3.07,11.22,3.06L929.51,634Z" transform="translate(-170 -106.22)"/></g><ellipse class="cls-17" cx="1666.52" cy="1440.71" rx="19.37" ry="16.7" transform="translate(-541 2172.03) rotate(-63.19)"/><ellipse class="cls-17" cx="1658.19" cy="1413.97" rx="8.44" ry="6.87" transform="translate(-89.87 2810.63) rotate(-84.06)"/><path class="cls-17" d="M1680.53,1414.07c-1.46,4.43-5.56,7-9.17,5.87s-5.35-5.73-3.9-10.16,5.56-7.06,9.17-5.87S1682,1409.64,1680.53,1414.07Z" transform="translate(-170 -106.22)"/><ellipse class="cls-17" cx="1687.08" cy="1420.16" rx="8.44" ry="6.87" transform="translate(-592.93 1955.02) rotate(-56.99)"/><path class="cls-17" d="M1699,1439.1c-2.54,3.91-7.18,5.4-10.36,3.33s-3.71-6.91-1.17-10.82,7.17-5.4,10.36-3.33S1701.58,1435.19,1699,1439.1Z" transform="translate(-170 -106.22)"/><ellipse class="cls-17" cx="1692.52" cy="1331.71" rx="19.37" ry="16.7" transform="translate(-429.45 2135.4) rotate(-63.19)"/><ellipse class="cls-17" cx="1684.19" cy="1304.97" rx="8.44" ry="6.87" transform="translate(41.85 2738.78) rotate(-84.06)"/><path class="cls-17" d="M1706.53,1305.07c-1.46,4.43-5.56,7-9.17,5.87s-5.35-5.73-3.9-10.16,5.56-7.06,9.17-5.87S1708,1300.64,1706.53,1305.07Z" transform="translate(-170 -106.22)"/><ellipse class="cls-17" cx="1713.08" cy="1311.16" rx="8.44" ry="6.87" transform="translate(-489.69 1927.21) rotate(-56.99)"/><path class="cls-17" d="M1725,1330.1c-2.54,3.91-7.18,5.4-10.36,3.33s-3.71-6.91-1.17-10.82,7.17-5.4,10.36-3.33S1727.58,1326.19,1725,1330.1Z" transform="translate(-170 -106.22)"/><ellipse class="cls-17" cx="1710.52" cy="1234.71" rx="19.37" ry="16.7" transform="translate(-332.99 2098.21) rotate(-63.19)"/><ellipse class="cls-17" cx="1702.19" cy="1207.97" rx="8.44" ry="6.87" transform="translate(154.47 2669.72) rotate(-84.06)"/><path class="cls-17" d="M1724.53,1208.07c-1.46,4.43-5.56,7-9.17,5.87s-5.35-5.73-3.9-10.16,5.56-7.06,9.17-5.87S1726,1203.64,1724.53,1208.07Z" transform="translate(-170 -106.22)"/><ellipse class="cls-17" cx="1731.08" cy="1214.16" rx="8.44" ry="6.87" transform="translate(-400.15 1898.15) rotate(-56.99)"/><path class="cls-17" d="M1743,1233.1c-2.54,3.91-7.18,5.4-10.36,3.33s-3.71-6.91-1.17-10.82,7.17-5.4,10.36-3.33S1745.58,1229.19,1743,1233.1Z" transform="translate(-170 -106.22)"/><ellipse class="cls-17" cx="1610.6" cy="1379.72" rx="19.37" ry="16.7" transform="translate(-36.6 2795.2) rotate(-86.44)"/><path class="cls-17" d="M1625,1358c-1.92,4.24-.68,9,2.77,10.52s7.83-.59,9.75-4.84.69-9-2.77-10.52S1627,1353.78,1625,1358Z" transform="translate(-170 -106.22)"/><path class="cls-17" d="M1612,1349.65c-1,4.55,1.22,8.9,4.93,9.7s7.52-2.24,8.51-6.79-1.23-8.9-4.94-9.7S1613,1345.1,1612,1349.65Z" transform="translate(-170 -106.22)"/><path class="cls-17" d="M1596.39,1351.91c.21,4.66,3.46,8.29,7.25,8.12s6.69-4.09,6.48-8.75-3.46-8.28-7.25-8.11S1596.17,1347.26,1596.39,1351.91Z" transform="translate(-170 -106.22)"/><path class="cls-17" d="M1583.36,1361.89c.21,4.65,3.46,8.28,7.25,8.11s6.7-4.09,6.48-8.75-3.46-8.28-7.25-8.11S1583.15,1357.23,1583.36,1361.89Z" transform="translate(-170 -106.22)"/><ellipse class="cls-17" cx="1632.6" cy="1285.72" rx="19.37" ry="16.7" transform="translate(77.85 2729) rotate(-86.44)"/><path class="cls-17" d="M1647,1264c-1.92,4.24-.68,9,2.77,10.52s7.83-.59,9.75-4.84.69-9-2.77-10.52S1649,1259.78,1647,1264Z" transform="translate(-170 -106.22)"/><path class="cls-17" d="M1634,1255.65c-1,4.55,1.22,8.9,4.93,9.7s7.52-2.24,8.51-6.79-1.23-8.9-4.94-9.7S1635,1251.1,1634,1255.65Z" transform="translate(-170 -106.22)"/><path class="cls-17" d="M1618.39,1257.91c.21,4.66,3.46,8.29,7.25,8.12s6.69-4.09,6.48-8.75-3.46-8.28-7.25-8.11S1618.17,1253.26,1618.39,1257.91Z" transform="translate(-170 -106.22)"/><path class="cls-17" d="M1605.36,1267.89c.21,4.65,3.46,8.28,7.25,8.11s6.7-4.09,6.48-8.75-3.46-8.28-7.25-8.11S1605.15,1263.23,1605.36,1267.89Z" transform="translate(-170 -106.22)"/></g><g id="_2" data-name="2"><path class="cls-18" d="M1824.41,1125.39c-1.47.76,18.17.61,16.9,2.08-41.34,35.75-103,47.07-148.8,12.24v0c-13.62-10-27.38-26-37-42.76l11.24-18.22c89.24,55,124.56-38.9,197.13-46.21l-14.52,21.2Z" transform="translate(-170 -106.22)"/><path class="cls-19" d="M1923.49,1754.65l1.36-.71c0,1,1.18,4.26,2.13,4.26l40.27.83c1,0,1.54-1.79,1.54-2.74l3.43-1c0-6-.49-8.21-3.16-12.88-9.79-13,1.9-71.2,1.56-86.4,2.42-4.16-42.4-.9-43-1.88a1.74,1.74,0,0,0-1.73,1.86l5.28,66.49C1933.52,1735.12,1923.83,1742.75,1923.49,1754.65Z" transform="translate(-170 -106.22)"/><path class="cls-19" d="M1748.94,1760.45h80.21c7-.29,6.95-7.43,5.66-13-4.42-20,3.39-65.8,4.83-86.32a6.37,6.37,0,0,0-6.34-7h-35.4a6.38,6.38,0,0,0-6.33,7.17l6.44,51.33c3.5,22.3-23.1,26.55-38.27,29C1749.76,1742.38,1733.06,1756,1748.94,1760.45Z" transform="translate(-170 -106.22)"/><path class="cls-12" d="M1837.86,1752.13c-.22,3.93-2.17,8.41-6.72,8.32h-83.2c-19.62-7.28,8.57-33.31,47-33.16,16.7,4.59,27.52,3.19,38.57,1.82C1833.49,1729.11,1839,1736.09,1837.86,1752.13Z" transform="translate(-170 -106.22)"/><path class="cls-12" d="M1965.84,1760.45h-35.55c-17.33-2.37-5-33,17.77-33.21S1983.16,1758.11,1965.84,1760.45Z" transform="translate(-170 -106.22)"/><path class="cls-20" d="M1742.12,1752.13h95.74a21.79,21.79,0,0,1-2.63,8.32h-87.29A6.18,6.18,0,0,1,1742.12,1752.13Z" transform="translate(-170 -106.22)"/><path class="cls-20" d="M1965.84,1760.45h-35.55a7.88,7.88,0,0,1-7.89-8.32h51.33A7.88,7.88,0,0,1,1965.84,1760.45Z" transform="translate(-170 -106.22)"/><path class="cls-21" d="M1852.79,940.94s-.42-26,23.08-30.61l12.31,12.78Z" transform="translate(-170 -106.22)"/><path class="cls-11" d="M1976.23,1715.07s-37.92,9.21-57.46-.69c-10.17-63.77-38.4-241.33-48.23-363-.38,7.09-21,293.24-25,363-13.49,4.52-40.62,10-55.8-1-6.81-73.45-28.71-315.29,4.27-512.81,0,0,90.38,10.06,161-11.27C1974.44,1252,1979.58,1639.89,1976.23,1715.07Z" transform="translate(-170 -106.22)"/><path class="cls-22" d="M1804.37,1707.31c-9.26-211.1,12-392.66,8.81-394.83C1807.6,1312.93,1786.23,1496.11,1804.37,1707.31Z" transform="translate(-170 -106.22)"/><path class="cls-22" d="M1946.39,1707.31c-3.68-216.92-35.91-422.39-40.78-423.17C1902,1286.87,1933.65,1490,1946.39,1707.31Z" transform="translate(-170 -106.22)"/><path class="cls-19" d="M1863.28,1031.75c-2-17.2.72-42,3.11-52.22,4.33-20.14,36.26-12.35,30.95,7.45-1-.65-4.32,35.84-2,46C1925.25,1041.93,1835.13,1071.49,1863.28,1031.75Z" transform="translate(-170 -106.22)"/><path class="cls-23" d="M1897.65,985.32c-.08.55-.18,1.11-.31,1.66-.74-.5-2.82,19.64-2.84,34.25-13.73,6.24-29,3.49-31.84,2.92-.3-18.51,1.4-35.37,4.12-46C1872.35,960.27,1900.49,966.8,1897.65,985.32Z" transform="translate(-170 -106.22)"/><path class="cls-19" d="M1918.94,977.8c-4.55,13.76-11.88,28.91-24.53,36.46h0a35.78,35.78,0,0,1-17,4.73c-33.81,4.56-67.11-41.47-36.69-64.37A42.36,42.36,0,0,0,1852.79,941C1879.89,888.68,1935.48,929.7,1918.94,977.8Z" transform="translate(-170 -106.22)"/><path class="cls-24" d="M1848.37,983.24l20-6.49C1868.51,988.1,1855.13,993.56,1848.37,983.24Z" transform="translate(-170 -106.22)"/><path class="cls-25" d="M1804.62,1104.49l-13.92,51.07c-29.81,9.16-61.6,7.08-89.64-10.13,30.83,17.41,73.19,7.59,79.87-2.63C1788,1132,1803.66,1106.06,1804.62,1104.49Z" transform="translate(-170 -106.22)"/><path class="cls-18" d="M1968.16,1274.61q-4.85,5.88-10.32,11.81s-17.75,3.34-31.66-15.16c56.71-120.22-52.77-131.43-30.89-238.32C1968.44,1041.58,2070.2,1150.75,1968.16,1274.61Z" transform="translate(-170 -106.22)"/><path class="cls-26" d="M1866.44,960.43c-.9-2.66,3.3-4,4.12-1.33S1867.26,963.12,1866.44,960.43Z" transform="translate(-170 -106.22)"/><path class="cls-26" d="M1849,954.52c-.9-2.66,3.31-4,4.13-1.33S1849.77,957.21,1849,954.52Z" transform="translate(-170 -106.22)"/><path class="cls-23" d="M1918.94,977.8c-4.55,13.76-11.88,28.91-24.53,36.46h0a31.14,31.14,0,0,1-3.25,1.67c9.85-7.06,17.67-24.34,17.67-24.34l.46-15.63c-11.47-16.09-3.06-30.76-3.06-30.76-24,2.75-29.4-12.64-29.4-12.64-7.39-.23-14.45-5.31-14.45-5.31C1893.29,893.43,1933.22,941.61,1918.94,977.8Z" transform="translate(-170 -106.22)"/><path class="cls-26" d="M1848.37,984.06c.45-.52,21.84-6,20.82-7.56.41-2-20.67,6.25-21.08,6A.82.82,0,0,0,1848.37,984.06Z" transform="translate(-170 -106.22)"/><path class="cls-26" d="M1854.16,974.32c1.41.44,2.61-1.53.78-1.7-2.88.55-9.17-2.42-5.7-3.85,5-1.69,12.75-13.09,8.21-11,0,.08-4.36,8-8.75,9.51C1842.69,970.21,1850,974.33,1854.16,974.32Z" transform="translate(-170 -106.22)"/><path class="cls-25" d="M1968.16,1274.61q-4.85,5.88-10.32,11.81s-18.08,2.53-32-16c2-5,4.3-8.19,6-13.12C1931.9,1257.33,1942.64,1269.36,1968.16,1274.61Z" transform="translate(-170 -106.22)"/><path class="cls-22" d="M1959.12,1288.8c3.83,1.14,7.86-3.39,2.66-4.7-28.14,1.23-35.64-17.35-36-18.14C1913.63,1259.09,1928.62,1290.49,1959.12,1288.8Z" transform="translate(-170 -106.22)"/><path class="cls-27" d="M1780.91,1285.51s5.52,23.68,49.7,35.36c12.65,3.35,20,1.69,21.82-7.08.93-4.4,3.33-12.07,7.76-14.91,0,0,9.88,4.27,13.61,10.32,8.18,13.28,20.5,1.22,26.49-12.68,7.42-17.19,29-33.5,33.12-47.92Z" transform="translate(-170 -106.22)"/><path class="cls-18" d="M1960.93,1256.24c-1.44,2.54-2.3,2.14-3.77.66-39.69-29.63-53.89,35.13-96.66,36.29-43.52,4.3-67.74,6.76-79.59-7.68-20.7-32.08,12.22-175.5,38.85-210.23,11.66-18,32.36-34.15,43.5-43.52-.23.94-6.16,25.61,32,1.18,1.92.81,14,12.62,13.27,19C1910.5,1080.92,1979.39,1223.62,1960.93,1256.24Z" transform="translate(-170 -106.22)"/><path class="cls-21" d="M1850.72,903.9a39.59,39.59,0,0,1,22.67,1.42,22.07,22.07,0,0,1,8.36-11.55,74,74,0,0,0,7.56,15.1c1-9.94,7.17-18,7.17-18,1.63,9.53,14.8,16.38,21,26.7,0,0,35.12,12,10,42.88h0c-1,11.41-6.61,23-6.61,23-18.43-16.84-14.46-37.08-6.08-42.34-15,5.32-28.41-1-36-11C1867.72,928.24,1854.05,922.16,1850.72,903.9Z" transform="translate(-170 -106.22)"/><path class="cls-25" d="M1938,1265.36l-8.71-1.81c34.79-78.31-6.12-111.42-27.76-155.54C1951.67,1166.08,1959.27,1197.92,1938,1265.36Z" transform="translate(-170 -106.22)"/><path class="cls-19" d="M1926.76,986.38c-5.75,15.46-25.18,8-19.08-7.35C1913.44,963.57,1932.87,971.05,1926.76,986.38Z" transform="translate(-170 -106.22)"/><path class="cls-26" d="M1921.27,988.89c3.55-3.72,3.55-10,1.93-11.7-3-3-8.55-2.67-8.56-.91.75,1.77,4.55-1.13,7.27,1.93C1924.84,980.51,1919,988,1921.27,988.89Z" transform="translate(-170 -106.22)"/><path class="cls-26" d="M1913.9,986.54c1.25-.08,3.28-5.76,9.47-5.39a.81.81,0,0,0,.89-.74C1920.23,976.32,1910.24,986.62,1913.9,986.54Z" transform="translate(-170 -106.22)"/><path class="cls-27" d="M1907,1035c.2,14.57-37.17,27.43-39.29,27.45l-4.48-13.26c-5.75,1.42-10.82,9.47-10.82,9.47-16.58-15.79-1-29.56,10.82-27v0c-.23.94-2.84,22.56,31.89.43C1899.62,1030.12,1907,1035,1907,1035Z" transform="translate(-170 -106.22)"/><path class="cls-22" d="M1845.58,1714.38a87.48,87.48,0,0,1-11.71,3.12s19.05-284,21.89-321.86,14.78-44.27,14.78-44.27S1845.26,1708.25,1845.58,1714.38Z" transform="translate(-170 -106.22)"/><path class="cls-22" d="M1846.33,1700.62c-.51,8.19-.79,13.09-.75,13.76-13.49,4.52-40.62,10-55.8-1,0,0-.48-4.5-1.27-12.79C1788.51,1700.62,1815.1,1712.84,1846.33,1700.62Z" transform="translate(-170 -106.22)"/><path class="cls-22" d="M1976.23,1715.07s-37.92,9.21-57.46-.69c0,0-.81-4.93-2.22-13.76,0,0,26.74,6.7,60.16-.78C1976.86,1708.44,1976.11,1714.36,1976.23,1715.07Z" transform="translate(-170 -106.22)"/><path class="cls-25" d="M1676.66,1084.27c-.05,11.65-15.88,21-15.88,21-1.78-2.69-3.55-5.52-5.22-8.4l11.24-18.22Z" transform="translate(-170 -106.22)"/><path class="cls-19" d="M1650.3,1045.91c-4.35,2.8,2.78,11.41,2.24,16.09a69.81,69.81,0,0,1-13.58-8.67c-6.18-7.63-11.94-15.57-17.35-23.78-13.32-6.1,7.81,24.07,9.4,27.78l-.1.1a220.75,220.75,0,0,1-22.69-20.87c-15-3.13,15.23,24.44,18,27.72l0,.07a129.08,129.08,0,0,1-23.77-17.27c-15.37-1.81,17.46,23.83,21.11,26.13l0,.12c-6.51-.87-19.89-12.9-24.19-10-4.07,6.6,39.89,30.27,55.29,33.25,5.54,1.52,13.54-12.42,12.19-17.9-1.27-5.14-4.82-11.43-6-13.73C1658.82,1059.6,1656.68,1046.34,1650.3,1045.91Z" transform="translate(-170 -106.22)"/><path class="cls-28" d="M1692.46,1139.56c.46.36.91.71,1.37,1.12-.46-.36-.86-.66-1.32-1v0A.15.15,0,0,1,1692.46,1139.56Z" transform="translate(-170 -106.22)"/><path class="cls-26" d="M1878.15,959.87a.94.94,0,0,1-.91-.7c-.06-.25-1.64-6-10.37-8.94a.94.94,0,0,1,.61-1.78c9.75,3.33,11.52,10,11.59,10.26a1,1,0,0,1-.69,1.14Z" transform="translate(-170 -106.22)"/><path class="cls-26" d="M1849.91,947.72a.94.94,0,0,1-.61-1.65c4.69-4,11.1-.79,11.37-.66a.94.94,0,1,1-.85,1.68s-5.58-2.76-9.3.41A1,1,0,0,1,1849.91,947.72Z" transform="translate(-170 -106.22)"/></g><g id="_1" data-name="1"><path class="cls-19" d="M576.81,1772.82l-68.09-34.52c2.1-3.34,10.48-10.56,14.87-25.52,23.75-80.77,61.39-158.45,67.23-170.94l63.1,13.06-99.24,164.51a14.18,14.18,0,0,0,1.74,17.94c10.16,11,24.82,15.9,28.77,29.3A5.83,5.83,0,0,1,576.81,1772.82Z" transform="translate(-170 -106.22)"/><path class="cls-11" d="M510,1730.66a19.37,19.37,0,0,0-1.26,7.64l69.13,35a5.5,5.5,0,0,0,8-4.1c1.13-8.74-2.53-24.11-33.55-41.93,0,0-12.48-2.27-28.67-14.53C523.59,1712.78,513.59,1720.7,510,1730.66Z" transform="translate(-170 -106.22)"/><path class="cls-29" d="M566.7,1756.49a1.56,1.56,0,0,0,1.72-.23c5.7-5,11.24-4.56,11.47-4.54a1.57,1.57,0,0,0,.29-3.13c-.28,0-7.06-.59-13.82,5.3A1.59,1.59,0,0,0,566.7,1756.49Z" transform="translate(-170 -106.22)"/><path class="cls-29" d="M556.49,1749.66a1.56,1.56,0,0,0,1.81-.32,21.86,21.86,0,0,1,14-6.25c6.57-4.88-9.06-4-16.24,4.06A1.58,1.58,0,0,0,556.49,1749.66Z" transform="translate(-170 -106.22)"/><path class="cls-29" d="M544.87,1741.86a1.58,1.58,0,0,0,1.78-.28,28.34,28.34,0,0,1,14.62-7.23c6-5.57-9.2-2.84-16.8,5A1.59,1.59,0,0,0,544.87,1741.86Z" transform="translate(-170 -106.22)"/><path class="cls-22" d="M585.83,1769.11,510,1730.66a19.37,19.37,0,0,0-1.26,7.64l69.13,35A5.5,5.5,0,0,0,585.83,1769.11Z" transform="translate(-170 -106.22)"/><path class="cls-19" d="M793.28,1771.22l-77.45-.21c-1.31-4.08,3-22.72,1.82-29.49-26-143.78-22.35-194.8-22.78-200.49l73.92-5.72-20.4,198.15A14.17,14.17,0,0,0,758,1748.7c14.35,5.67,31.89,2.59,40.06,15.23A5.18,5.18,0,0,1,793.28,1771.22Z" transform="translate(-170 -106.22)"/><path class="cls-11" d="M713.52,1763.61a19.28,19.28,0,0,0,2.31,7.4l77.49.21a5.5,5.5,0,0,0,5.27-7.24c-2.92-8.32-13.1-20.4-48.81-22.37,0,0-12.16,3.58-32.13-.09C717.65,1741.52,712.26,1753.09,713.52,1763.61Z" transform="translate(-170 -106.22)"/><path class="cls-29" d="M776.79,1760.8c2.6-6.32,8.43-10.15,8.64-9.81a1.57,1.57,0,0,0-1.15-2.93c-.27.11-6.57,2.65-10,11A1.58,1.58,0,0,0,776.79,1760.8Z" transform="translate(-170 -106.22)"/><path class="cls-29" d="M764.59,1759.3c2.37-7.36,10-13,10.17-12.61a1.57,1.57,0,0,0-1.44-2.78,24.67,24.67,0,0,0-11.24,13.72A1.58,1.58,0,0,0,764.59,1759.3Z" transform="translate(-170 -106.22)"/><path class="cls-29" d="M750.71,1757.55c3.6-10.42,12.19-13.35,10.73-15.88-2.14-2.48-9.14,4.25-13.22,14.16A1.58,1.58,0,0,0,750.71,1757.55Z" transform="translate(-170 -106.22)"/><path class="cls-22" d="M798.54,1763.85l-85-.24a19.28,19.28,0,0,0,2.31,7.4l77.49.21A5.5,5.5,0,0,0,798.54,1763.85Z" transform="translate(-170 -106.22)"/><path class="cls-19" d="M737,1207.49c96.3-21.26,153-117,153.67-211.36.44-11-15.59-14.72-20.12-4.87-35.57,79.31-60.64,131.12-148.32,158.92C684.77,1160,699.48,1217,737,1207.49Z" transform="translate(-170 -106.22)"/><path class="cls-19" d="M674.2,1150c-111,4.09-226.73,119.15-78.52,180.22,15.09,5.68,21.16-12.07,9-20.46-83.77-67.25,16.36-91.25,76.24-101C719.06,1203.33,712.49,1146.72,674.2,1150Z" transform="translate(-170 -106.22)"/><path class="cls-21" d="M523.83,1241.36A17.4,17.4,0,0,0,526,1247c-.56-.93,36-2.92,47.14,12,5.52-.13,15.81-5.4,21.41-12.69,9.81-10.81,30.29-18.69,39.66-22.19l47.64-90.73C658.6,1124.36,516,1173.54,523.83,1241.36Z" transform="translate(-170 -106.22)"/><path class="cls-12" d="M773.85,1535.31c-.83,10-1.46,15.77-1.46,15.77-97.62,35.59-191.7.48-191.7.48q.16-6.09-.19-12.46c-2.19-43.23-19.3-96.51-11.71-150.26,8.34-59,29-91.49,29-91.49L759.93,1306C785.34,1364.19,777.55,1490.9,773.85,1535.31Z" transform="translate(-170 -106.22)"/><path class="cls-20" d="M601,1545.78c0-.39,3.79-40-2.69-111.65-6.39-70.55,20.4-134.88,20.67-135.52l-5.94-2.52c-.28.66-27.69,66.48-21.17,138.62,6.43,71,2.75,110,2.71,110.43Z" transform="translate(-170 -106.22)"/><path class="cls-20" d="M754.08,1549.23c15.38-113.59-9.92-244.86-10.18-246.17l-6.33,1.24c.25,1.31,25.35,131.55,10.11,244.06Z" transform="translate(-170 -106.22)"/><path class="cls-20" d="M727.19,1555.1c5.39-85.84-6.41-247.34-6.53-249l-6.44.48c.12,1.61,11.89,162.68,6.53,248.08Z" transform="translate(-170 -106.22)"/><path class="cls-20" d="M698.18,1554.91c0-.64.13-64.63-4.72-119.66-4.82-54.64,0-127.92,0-128.66l-6.44-.43c0,.74-4.86,74.53,0,129.66,4.82,54.73,4.7,118.43,4.7,119.07Z" transform="translate(-170 -106.22)"/><path class="cls-20" d="M657.15,1555c0-.61,2-61.3,0-119.59-2-57.84,9.56-129.18,9.67-129.9l-6.37-1c-.12.72-11.8,72.67-9.76,131.17,2,58.06,0,118.54,0,119.14Z" transform="translate(-170 -106.22)"/><path class="cls-20" d="M628.67,1549.19c2.47-26.45,1.82-53,.91-89.81-.28-11.26-.59-24-.85-38-1.06-58.48,14.89-117.69,15-118.28l-6.23-1.7c-.16.6-16.36,60.66-15.27,120.09.25,14,.57,26.81.84,38.08.94,37.92,1.56,63-.88,89Z" transform="translate(-170 -106.22)"/><rect class="cls-19" x="679.24" y="1105.1" width="35.77" height="27.79" transform="translate(-651.4 1603.73) rotate(-84.71)"/><path class="cls-19" d="M661.7,1073.72c-2.77,54.54,85.11,54.64,81.56-.71-.19-10.93-3.4-18.48-3.62-35.89-.51-40.3-57-47.68-66-6.41C670.1,1047,663,1058.57,661.7,1073.72Z" transform="translate(-170 -106.22)"/><path class="cls-30" d="M568.21,1253.72c1.66,1.22,3.47,3.63,4.91,5.21,0,0,11-.65,21.41-12.69,8.4-9.73,29.17-18.24,36.79-21.14l-8.1-25.46s-21.21,19.24-32.13,38.16C580.43,1256.27,568.82,1253.8,568.21,1253.72Z" transform="translate(-170 -106.22)"/><path class="cls-21" d="M597.74,1297.35s66.53,24.58,162.19,8.68c2.19-23.08,2.2-67.33-3.79-96.18-12.68-95-122.74-124.33-141.34,28.87C610.5,1264.42,607.9,1276.18,597.74,1297.35Z" transform="translate(-170 -106.22)"/><path class="cls-21" d="M709.45,1136.52l46.71,73.33c59.84-17.51,130.91-71.61,123.57-118.51h0a26.1,26.1,0,0,0-4.52-9.69c-26,.16-40.12-19.68-40.12-19.68C794.1,1071.27,798.53,1130.61,709.45,1136.52Z" transform="translate(-170 -106.22)"/><path class="cls-31" d="M735.56,1016.16s20.93,6.94-1.33,40.44c-13.76,20.71,21.34,52.06-6.81,80.17-65.32,85.9-251.89,42.26-150.18-50,30.49-16.4,29.17-33.17,39.4-54.25C630.28,1004.4,692.11,951.61,735.56,1016.16Z" transform="translate(-170 -106.22)"/><path class="cls-30" d="M523.83,1241.36A17.4,17.4,0,0,0,526,1247c-.56-.93,36-2.92,47.14,12,0,0,2.41-.21,7.58-2.43C580.7,1256.5,558.85,1227.3,523.83,1241.36Z" transform="translate(-170 -106.22)"/><path class="cls-30" d="M822.25,1067.18c30.71,34.23,57.47,24.16,57.47,24.16a26.1,26.1,0,0,0-4.52-9.69c-26,.16-40.12-19.68-40.12-19.68C830.46,1062.31,825.87,1065,822.25,1067.18Z" transform="translate(-170 -106.22)"/><path class="cls-30" d="M740.74,1197.19c.6,1.62,20,53.69,20.09,88.51.66-20.78-.21-52.48-4.68-75.85C755.73,1209.78,750.44,1207.58,740.74,1197.19Z" transform="translate(-170 -106.22)"/><path class="cls-20" d="M773.85,1535.31c-.83,10-1.46,15.77-1.46,15.77-97.62,35.59-191.7.48-191.7.48q.16-6.09-.19-12.46l0,0S684.44,1569.59,773.85,1535.31Z" transform="translate(-170 -106.22)"/><path class="cls-19" d="M874,976.81a69,69,0,0,1,14.48-31.33c3.25-2.81,8-11.31,12.66-7.49a3.15,3.15,0,0,1-.08,4.09c-9,9.56-13.74,22.79-14.26,35.79C887,987.16,872.23,985.94,874,976.81Z" transform="translate(-170 -106.22)"/><path class="cls-19" d="M890.19,1001.06s13.76-10.74,14-24.44-12.65-19.79-12.65-19.79S872.41,985.21,890.19,1001.06Z" transform="translate(-170 -106.22)"/><path class="cls-19" d="M870.8,987.76s8.48-20.06,23.14-29.19l-10.12,32.26Z" transform="translate(-170 -106.22)"/><path class="cls-19" d="M875,955.71a7.17,7.17,0,0,1,2.25,4.54c1,8.26,1.41,17.21,5.43,24.43,5,10-10.53,17.4-12.16,6.58C868.68,987.07,867.16,948.64,875,955.71Z" transform="translate(-170 -106.22)"/><path class="cls-23" d="M891.7,969.61a.52.52,0,0,1-.32-.07.65.65,0,0,1-.29-.89c3.35-6.64,7.09-6.83,7.2-6.8a.67.67,0,0,1,.68.64.68.68,0,0,1-.64.69c-.07,0-3.12.26-6.06,6.07A.64.64,0,0,1,891.7,969.61Z" transform="translate(-170 -106.22)"/><path class="cls-23" d="M897,975.11a.73.73,0,0,1-.35-.09.67.67,0,0,1-.25-.91c2.63-4.66,5.47-5.42,5.59-5.45a.65.65,0,0,1,.8.48.67.67,0,0,1-.47.81c-.06,0-2.45.73-4.76,4.82A.68.68,0,0,1,897,975.11Z" transform="translate(-170 -106.22)"/></g></svg>